inDegrees=no
num_controls=7
num_derivatives=13
num_iterations=38
num_multipliers=7
num_parameters=0
num_slacks=7
num_states=26
objective=0.428150
objective_accelerations=0.056202
objective_balance=0.001113
objective_effort=0.014878
objective_height=0.349988
objective_ligament=0.005969
solver_duration=563.730635
status=Solve_Succeeded
success=true
DataType=double
version=3
OpenSimVersion=4.5
endheader
time	/jointset/ground_pelvis/pelvis_tilt/value	/jointset/ground_pelvis/pelvis_tx/value	/jointset/ground_pelvis/pelvis_ty/value	/jointset/hip_l/hip_flexion_l/value	/jointset/hip_l/hip_adduction_l/value	/jointset/hip_l/hip_rotation_l/value	/jointset/back/lumbar_extension/value	/jointset/patellofemoral_l/patellar_flexion_l/value	/jointset/knee_l/knee_flexion_l/value	/jointset/knee_l/knee_adduction_l/value	/jointset/knee_l/knee_rotation_l/value	/jointset/ankle_l/ankle_angle_l/value	/jointset/subtalar_l/subtalar_angle_l/value	/jointset/ground_pelvis/pelvis_tilt/speed	/jointset/ground_pelvis/pelvis_tx/speed	/jointset/ground_pelvis/pelvis_ty/speed	/jointset/hip_l/hip_flexion_l/speed	/jointset/hip_l/hip_adduction_l/speed	/jointset/hip_l/hip_rotation_l/speed	/jointset/back/lumbar_extension/speed	/jointset/patellofemoral_l/patellar_flexion_l/speed	/jointset/knee_l/knee_flexion_l/speed	/jointset/knee_l/knee_adduction_l/speed	/jointset/knee_l/knee_rotation_l/speed	/jointset/ankle_l/ankle_angle_l/speed	/jointset/subtalar_l/subtalar_angle_l/speed	/forceset/tau_hip_flexion_l	/forceset/tau_hip_adduction_l	/forceset/tau_hip_rotation_l	/forceset/tau_knee_flexion_l	/forceset/tau_ankle_angle_l	/forceset/tau_subtalar_angle_l	/forceset/tau_lumbar_extension	lambda_cid13_p0	lambda_cid13_p1	lambda_cid13_p2	lambda_cid13_p3	lambda_cid13_p4	lambda_cid13_p5	lambda_cid14_p0	/jointset/ground_pelvis/pelvis_tilt/accel	/jointset/ground_pelvis/pelvis_tx/accel	/jointset/ground_pelvis/pelvis_ty/accel	/jointset/hip_l/hip_flexion_l/accel	/jointset/hip_l/hip_adduction_l/accel	/jointset/hip_l/hip_rotation_l/accel	/jointset/back/lumbar_extension/accel	/jointset/patellofemoral_l/patellar_flexion_l/accel	/jointset/knee_l/knee_flexion_l/accel	/jointset/knee_l/knee_adduction_l/accel	/jointset/knee_l/knee_rotation_l/accel	/jointset/ankle_l/ankle_angle_l/accel	/jointset/subtalar_l/subtalar_angle_l/accel	gamma_cid13_p0	gamma_cid13_p1	gamma_cid13_p2	gamma_cid13_p3	gamma_cid13_p4	gamma_cid13_p5	gamma_cid14_p0
1.5	-0.3366779123755779	0.06241047449559314	0.7960559863887883	0.9739744261280491	-0.3602797247084489	-0.05449883884472214	-0.3234048881140661	0.8020939685747173	0.8020939685748191	-0.04134231865724598	-0.1712393528966716	0.2819915966601984	0.1551492562736884	0.4610889954394101	0.2614101817638949	0.4717709271311333	-2.234217905424325	0.003643779288081247	-0.5905620340957616	0.6153070851628305	-2.161194592757443	-2.161194592757429	-0.2963740771931462	0.03969524760350768	-0.5580816249788957	-0.2162354314066313	-0.1305190994877239	0.08350088334757308	0.001326194601285895	-0.1209890464265219	-0.042990744726119	-0.0190268908774629	0.1243097197153465	-39.80456498159707	15.89717689949026	-3.574253725398929	1.028245490578852	-429.8764910683088	-20.56735414570391	-10.89195071032366	0.5392649130165491	0.456441317734355	-0.7464582099044731	-1.132353751345756	0.3191404096292463	-0.4750347175344946	1.474104709146159	-1.148483120102076	-1.14848312010207	-0.121099829339907	0.3376575211877065	-0.6202345910332484	0.4047928844338615	5.180165452924465e-07	4.357518836314092e-07	-6.217907916329175e-06	-2.28155176706742e-07	1.329041467165963e-06	2.195940902926258e-06	7.59758955539527e-07
1.51	-0.3320399235990663	0.06504704850228178	0.8007354511942267	0.9515769150525296	-0.3602300053555198	-0.06042167724104301	-0.3171800294021361	0.7804265828693876	0.780426582869435	-0.04432115290714527	-0.1708246052760673	0.2763796598232937	0.153003372533461	0.4664376043468071	0.265860496245056	0.464017566201678	-2.244977845598436	0.006270212262978304	-0.593738321594585	0.6295627279072838	-2.171972025933009	-2.171972025933071	-0.2995476615981095	0.04339586707970153	-0.5642166842001761	-0.2129543564855003	-0.126395896806473	0.08193063523067992	0.002397756567578387	-0.1178417285465059	-0.04318923546489578	-0.02009465768997019	0.1208200798345293	-39.74935316238494	16.12659474321592	-3.35423219993475	1.339679241858542	-426.7887232402065	-20.51237123659973	-11.77945461748955	0.5220286632024215	0.4326962946814603	-0.805192659428134	-1.00177753884106	0.2306289500476799	-0.1980384429726486	1.386004659820481	-0.9959460782825401	-0.9959460782940595	-0.4387017849082421	0.4065176693079194	-0.5967184530716988	0.2882362747724629	4.830598518310803e-07	1.110571607108298e-06	-5.760772827700876e-06	-1.16246383480421e-07	1.285250280330278e-06	2.499602613781719e-06	7.566779946936547e-07
1.52	-0.3273505747767697	0.06772679961005655	0.8053342988653778	0.9290810118975767	-0.3601547748311354	-0.0663681010477201	-0.3108156721422168	0.7586607082999041	0.7586607082998937	-0.0473363658089185	-0.1703688007589771	0.2707090570210952	0.1508899938382079	0.4713610045982575	0.2700456019811218	0.4556475002737135	-2.253896321308444	0.008746013582996336	-0.5952791161700617	0.6432067947607678	-2.18089236558852	-2.180892365588659	-0.3036498075564298	0.04790662689480762	-0.5698148180373075	-0.2097344224115806	-0.1222726941252502	0.08036038711377898	0.003469318533632099	-0.1146944106664745	-0.04338772620365174	-0.02116242450243678	0.1173304399536812	-39.68983797325028	16.35324432965821	-3.131462261176386	1.608141371730524	-423.6329304320788	-20.55123899698718	-12.66382906878837	0.4542231818272245	0.4033995687152462	-0.869799209606305	-0.7640608585249625	0.2890140786534187	-0.1479361328651724	1.351789530952303	-0.7770644160910959	-0.7770644160911103	-0.3068121400113357	0.4996855889702129	-0.5128495142034594	0.3925647149916248	3.087971173213351e-07	2.765303763467842e-06	-3.708458537134808e-06	1.911724588931757e-07	9.212896754803129e-07	2.608834369893682e-06	6.549531798139401e-07
1.53	-0.3226146433807952	0.07044696209703684	0.8098464413556362	0.9065061464646113	-0.360053365796409	-0.07233596699476592	-0.304317850149799	0.7368155280056722	0.7368155280056242	-0.05038414155201656	-0.1698719341417717	0.2649859030119766	0.148811892112803	0.4757310305632156	0.273932471049207	0.446689438879404	-2.260737641199671	0.01155327793192571	-0.5982352033949687	0.6562340307623336	-2.187829020461204	-2.187829020461297	-0.3058640579867587	0.05147542513729027	-0.5747214227302537	-0.2058381435104456	-0.1179458034137357	0.07859430517018083	0.004435345710551728	-0.1120434136237574	-0.04320517465252342	-0.02227737725619593	0.1136810297083365	-39.53245395718998	16.60240786197492	-2.934166058699281	1.850825819936263	-420.7899444200968	-20.62662094290368	-13.54457438678856	0.4142590057224335	0.3733633424110916	-0.9225754021178245	-0.5933089419132617	0.2781799082563439	-0.3603624332699182	1.259654690805308	-0.6048326733060184	-0.6048326732992246	-0.17140491954051	0.2872687609039378	-0.4651235003890283	0.3939965244468128	-1.347828580231121e-08	5.461192879765193e-06	3.873365549012286e-08	7.063207284857507e-07	2.171490639901775e-07	2.511484299090682e-06	4.484192700232695e-07
1.54	-0.3178378383847925	0.07320439982800882	0.8142662500723962	0.8838730395552304	-0.3599235646591426	-0.07833157729725951	-0.2976934629861572	0.714910407832603	0.7149104078325617	-0.05345259448434315	-0.169339021178375	0.2592165714452214	0.1467739205857631	0.4795357246038783	0.2775006507794598	0.4371807455740745	-2.265544616590568	0.01442443409060299	-0.6008279872585323	0.6685198290057713	-2.192880341351852	-2.1928803413519	-0.3077852454169657	0.05511589614044601	-0.5790503295651531	-0.2017083827384182	-0.1136189127022836	0.076828223226556	0.005401372887750503	-0.1093924165810666	-0.0430226231014102	-0.02339233001002364	0.1100316194629432	-39.37360047088125	16.85058514714121	-2.735881202553401	2.092962284723082	-417.9130236130907	-20.69817050569964	-14.42207100722428	0.3411567969681405	0.339661701148742	-0.9799255918103074	-0.3571919584587353	0.3017924406029862	-0.07527546059643488	1.203501979326711	-0.3999976196843087	-0.3999976196843102	-0.2481995399869891	0.5140201411048905	-0.3973099425941021	0.4392610891701232	-1.367584146453666e-07	6.527857703905562e-06	1.411660084156774e-06	9.067084920892177e-07	-3.865971017090032e-08	2.526141392459726e-06	3.777551415412217e-07
